<?xml version="1.0" encoding="UTF-8"?>
<!--Generator: Apple Native CoreSVG 232.5-->
<!DOCTYPE svg
PUBLIC "-//W3C//DTD SVG 1.1//EN"
       "http://www.w3.org/Graphics/SVG/1.1/DTD/svg11.dtd">
<svg version="1.1" xmlns="http://www.w3.org/2000/svg" xmlns:xlink="http://www.w3.org/1999/xlink" width="19.9219" height="19.9316">
 <g>
  <rect height="19.9316" opacity="0" width="19.9219" x="0" y="0"/>
  <path d="M9.96094 19.9219C15.4102 19.9219 19.9219 15.4004 19.9219 9.96094C19.9219 4.51172 15.4004 0 9.95117 0C4.51172 0 0 4.51172 0 9.96094C0 15.4004 4.52148 19.9219 9.96094 19.9219Z" fill="#4b5563"/>
  <path d="M9.9707 15C9.53125 15 9.20898 14.6875 9.20898 14.2383L9.20898 9.22852L9.29688 7.08984L8.29102 8.30078L7.09961 9.50195C6.96289 9.63867 6.76758 9.72656 6.5625 9.72656C6.14258 9.72656 5.83008 9.4043 5.83008 8.99414C5.83008 8.7793 5.88867 8.60352 6.02539 8.4668L9.38477 5.11719C9.58984 4.91211 9.75586 4.83398 9.9707 4.83398C10.1953 4.83398 10.3711 4.92188 10.5664 5.11719L13.916 8.4668C14.0527 8.60352 14.1309 8.7793 14.1309 8.99414C14.1309 9.4043 13.8086 9.72656 13.3887 9.72656C13.1738 9.72656 12.9883 9.64844 12.8516 9.50195L11.6699 8.30078L10.6445 7.08008L10.7324 9.22852L10.7324 14.2383C10.7324 14.6875 10.4199 15 9.9707 15Z" fill="#ffffff"/>
 </g>
</svg>
