<?xml version="1.0" encoding="UTF-8"?>
<!--Generator: Apple Native CoreSVG 232.5-->
<!DOCTYPE svg
PUBLIC "-//W3C//DTD SVG 1.1//EN"
       "http://www.w3.org/Graphics/SVG/1.1/DTD/svg11.dtd">
<svg version="1.1" xmlns="http://www.w3.org/2000/svg" xmlns:xlink="http://www.w3.org/1999/xlink" width="19.9219" height="19.9316">
 <g>
  <rect height="19.9316" opacity="0" width="19.9219" x="0" y="0"/>
  <path d="M9.96094 19.9219C15.4102 19.9219 19.9219 15.4004 19.9219 9.96094C19.9219 4.51172 15.4004 0 9.95117 0C4.51172 0 0 4.51172 0 9.96094C0 15.4004 4.52148 19.9219 9.96094 19.9219Z" fill="#4b5563"/>
  <path d="M9.9707 4.83398C10.4199 4.83398 10.7324 5.14648 10.7324 5.5957L10.7324 10.6055L10.6445 12.7539L11.6699 11.5332L12.8516 10.332C12.9883 10.1758 13.1738 10.1074 13.3887 10.1074C13.8086 10.1074 14.1309 10.4199 14.1309 10.8398C14.1309 11.0547 14.0527 11.2305 13.916 11.3672L10.5664 14.707C10.3711 14.9023 10.1953 15 9.9707 15C9.75586 15 9.58984 14.9121 9.38477 14.707L6.02539 11.3672C5.88867 11.2305 5.83008 11.0547 5.83008 10.8398C5.83008 10.4199 6.14258 10.1074 6.5625 10.1074C6.76758 10.1074 6.96289 10.1855 7.09961 10.332L8.29102 11.5332L9.29688 12.7441L9.20898 10.6055L9.20898 5.5957C9.20898 5.14648 9.53125 4.83398 9.9707 4.83398Z" fill="#ffffff"/>
 </g>
</svg>
