<?xml version="1.0" encoding="UTF-8"?>
<!--Generator: Apple Native CoreSVG 232.5-->
<!DOCTYPE svg
PUBLIC "-//W3C//DTD SVG 1.1//EN"
       "http://www.w3.org/Graphics/SVG/1.1/DTD/svg11.dtd">
<svg version="1.1" xmlns="http://www.w3.org/2000/svg" xmlns:xlink="http://www.w3.org/1999/xlink" width="19.9219" height="19.9316">
 <g>
  <rect height="19.9316" opacity="0" width="19.9219" x="0" y="0"/>
  <path d="M9.96094 19.9219C15.4102 19.9219 19.9219 15.4004 19.9219 9.96094C19.9219 4.51172 15.4004 0 9.95117 0C4.51172 0 0 4.51172 0 9.96094C0 15.4004 4.52148 19.9219 9.96094 19.9219ZM9.96094 18.2617C5.35156 18.2617 1.66992 14.5703 1.66992 9.96094C1.66992 5.35156 5.3418 1.66016 9.95117 1.66016C14.5605 1.66016 18.2617 5.35156 18.2617 9.96094C18.2617 14.5703 14.5703 18.2617 9.96094 18.2617Z" fill="#4b5563"/>
  <path d="M6.46484 5.40039L4.05273 7.86133C3.94531 7.98828 3.85742 8.17383 3.85742 8.31055C3.85742 8.67188 4.13086 8.94531 4.49219 8.94531C4.6582 8.94531 4.81445 8.86719 4.93164 8.75L5.9375 7.70508L6.30859 7.30469L6.28906 7.7832L6.28906 14.1113C6.28906 14.4629 6.5625 14.7266 6.92383 14.7266C7.29492 14.7266 7.55859 14.4629 7.55859 14.1113L7.55859 7.77344L7.53906 7.30469L7.91016 7.70508L8.92578 8.75977C9.04297 8.87695 9.19922 8.94531 9.36523 8.94531C9.72656 8.94531 9.98047 8.68164 9.98047 8.31055C9.98047 8.1543 9.90234 7.96875 9.79492 7.86133L7.39258 5.40039C7.1582 5.15625 6.74805 5.11719 6.46484 5.40039ZM13.4473 14.541L15.8398 12.0898C15.957 11.9629 16.0449 11.7871 16.0449 11.6309C16.0449 11.2598 15.7812 11.0059 15.4199 11.0059C15.2441 11.0059 15.0781 11.0742 14.9707 11.1914L13.9648 12.2266L13.5938 12.627L13.6133 12.168L13.6133 5.83008C13.6133 5.46875 13.3398 5.20508 12.9785 5.20508C12.6172 5.20508 12.3438 5.46875 12.3438 5.83008L12.3438 12.1777L12.3633 12.6367L11.9922 12.2266L10.9863 11.1914C10.8594 11.0645 10.7129 11.0059 10.5371 11.0059C10.166 11.0059 9.92188 11.2598 9.92188 11.6309C9.92188 11.7773 9.99023 11.9531 10.0977 12.0898L12.5 14.541C12.7344 14.7754 13.1836 14.8145 13.4473 14.541Z" fill="#4b5563"/>
 </g>
</svg>
